<svg width="133" height="17" viewBox="0 0 133 17" fill="none" xmlns="http://www.w3.org/2000/svg">
<g clip-path="url(#clip0)">
<path d="M131.948 1.4175C131.502 1.06334 130.975 0.841981 130.488 0.841981H130.326C114.517 -0.0434357 93.5596 -0.0877065 80.1421 0.0893769C43.335 0.532085 7.21707 2.30292 2.39324 2.56854C1.05554 2.61281 0.731245 3.40969 0.528563 3.98521C0.528563 4.07375 0.528563 4.20656 0.528563 4.29511V4.33938C0.528563 4.33938 0.488027 4.38365 0.447491 4.38365C0.406954 4.42792 0.325881 4.47219 0.285345 4.51646C0.163736 4.64927 0.0826628 4.78209 0.0421264 4.9149C-0.0389464 5.18052 0.0421264 5.40188 0.123199 5.44615C0.204272 5.53469 0.325881 5.53469 0.406954 5.53469C0.528563 5.53469 0.650173 5.53469 0.731245 5.57896C0.771782 5.57896 0.812318 5.62323 0.852855 5.71177C0.852855 5.75604 0.852855 5.75604 0.852855 5.80031C0.852855 5.84459 0.852855 5.84459 0.852855 5.88886C0.893391 6.02167 0.893391 6.11021 0.933928 6.24302C0.933928 6.37584 0.974464 6.46438 0.974464 6.59719C1.13661 7.48261 1.42036 8.19094 1.9068 8.36802C2.59592 8.58938 6.32527 8.41229 9.93301 8.19094C13.5002 7.96959 16.9053 7.74823 16.9053 7.74823C16.9053 7.74823 22.2561 7.48261 27.8501 7.21698C33.4441 6.95136 39.3219 6.73 40.3759 6.68573C40.6191 6.68573 43.4161 6.59719 48.1994 6.42011C52.9827 6.28729 59.7117 6.06594 67.9001 5.88886C74.0211 5.75604 80.9528 5.62323 88.4926 5.53469C79.9394 6.37584 72.0348 7.21698 65.1842 7.96959C50.4289 9.60761 40.6191 10.8915 39.8489 10.98C38.1058 11.2456 33.7684 11.8211 29.35 12.4852C24.9315 13.1493 20.3914 13.9461 18.2835 14.6102C16.1756 15.23 15.8513 17.0451 18.4051 17.0008C19.905 16.9566 26.5124 16.204 29.6742 15.8941C29.958 15.8498 33.2415 15.4956 38.7544 14.8758C44.2674 14.256 52.0909 13.4592 61.4143 12.5738C70.7782 11.6883 81.6419 10.7144 93.3975 9.74042C99.2753 9.25344 105.315 8.76646 111.517 8.27948C114.598 8.05813 117.719 7.7925 120.881 7.57115C122.462 7.43834 124.043 7.34979 125.624 7.21698C126.394 7.17271 127.205 7.08417 128.016 7.0399L129.191 6.95136L129.799 6.90709L130.123 6.86281H130.245C130.488 6.81854 130.772 6.77427 131.096 6.64146C131.664 6.42011 132.191 5.93313 132.475 5.53469C133.326 4.20656 133.123 2.39146 131.948 1.4175ZM129.759 1.68313C129.759 1.68313 129.718 1.68313 129.678 1.68313H129.759C129.799 1.68313 129.759 1.68313 129.759 1.68313Z" fill="#F591AF"/>
</g>
<defs>
<clipPath id="clip0">
<rect width="133" height="17" fill="white"/>
</clipPath>
</defs>
</svg>
